<?xml version="1.0" encoding="UTF-8"?>
<svg id="Layer_2" data-name="Layer 2" xmlns="http://www.w3.org/2000/svg" viewBox="0 0 558.71 329.75">
  <defs>
    <style>
      .cls-1 {
        fill: #fff;
        stroke-width: 0px;
      }
    </style>
  </defs>
  <g id="Layer_1-2" data-name="Layer 1">
    <g>
      <path class="cls-1" d="M415.68,50.35C381.25,19.3,332.97,0,279.52,0s-98.76,18.13-132.94,47.51L0,164.87l146.57,117.37c34.18,29.38,81.13,47.51,132.94,47.51s101.73-19.3,136.17-50.35l143.02-114.53-143.02-114.52ZM424.58,164.88c0,80.21-65.02,145.22-145.22,145.22s-145.22-65.02-145.22-145.22h0c.01-80.22,65.02-145.22,145.22-145.22s145.21,65,145.22,145.21h0Z"/>
      <polygon class="cls-1" points="384.06 173.18 299.42 173.18 359.28 233.02 347.49 244.81 346.25 243.52 287.68 184.95 287.68 269.58 271.04 269.58 271.04 184.95 211.18 244.81 199.44 233.02 259.28 173.18 174.64 173.18 174.64 156.57 259.3 156.57 199.44 96.71 211.2 84.94 271.04 144.78 271.04 60.14 287.68 60.14 287.68 144.8 347.55 84.92 359.26 96.73 299.42 156.57 384.06 156.57 384.06 173.18"/>
    </g>
  </g>
</svg>