<?xml version="1.0" encoding="UTF-8"?>
<svg id="Layer_2" data-name="Layer 2" xmlns="http://www.w3.org/2000/svg" viewBox="0 0 941.52 129.78">
  <defs>
    <style>
      .cls-1 {
        fill: #000;
        stroke-width: 0px;
      }
    </style>
  </defs>
  <g id="Layer_1-2" data-name="Layer 1">
    <g>
      <path class="cls-1" d="M163.6,19.82C150.05,7.6,131.05,0,110.01,0s-38.87,7.13-52.32,18.7L0,64.89l57.69,46.19c13.45,11.56,31.93,18.7,52.32,18.7s40.04-7.6,53.59-19.82l56.29-45.08-56.29-45.07ZM167.1,64.89c0,31.57-25.59,57.16-57.16,57.16s-57.16-25.59-57.16-57.16h0c0-31.57,25.59-57.16,57.16-57.16s57.15,25.58,57.16,57.15h0Z"/>
      <polygon class="cls-1" points="151.15 68.16 117.84 68.16 141.4 91.71 136.76 96.35 136.27 95.84 113.22 72.79 113.22 106.1 106.67 106.1 106.67 72.79 83.11 96.35 78.49 91.71 102.04 68.16 68.73 68.16 68.73 61.62 102.05 61.62 78.49 38.06 83.12 33.43 106.67 56.98 106.67 23.67 113.22 23.67 113.22 56.99 136.78 33.42 141.39 38.07 117.84 61.62 151.15 61.62 151.15 68.16"/>
      <g>
        <path class="cls-1" d="M372.68,103.56c-8.95,9.84-20.87,14.76-35.77,14.76s-26.82-4.92-35.77-14.76c-8.95-9.84-13.42-22.39-13.42-37.67s4.47-27.83,13.42-37.67c8.95-9.84,20.87-14.76,35.77-14.76s26.82,4.92,35.77,14.76c8.95,9.84,13.42,22.39,13.42,37.67s-4.48,27.83-13.42,37.67ZM310.21,95.69c6.37,7.68,15.27,11.52,26.7,11.52s20.33-3.84,26.7-11.52c6.37-7.68,9.56-17.61,9.56-29.79s-3.19-22.14-9.56-29.87c-6.37-7.73-15.27-11.6-26.7-11.6s-20.33,3.87-26.7,11.6c-6.37,7.73-9.56,17.69-9.56,29.87s3.18,22.11,9.56,29.79Z"/>
        <path class="cls-1" d="M410.84,43.55v9.56h.28c5.62-7.49,13.3-11.24,23.05-11.24,7.68,0,13.68,2.02,17.99,6.04,4.31,4.03,6.46,9.79,6.46,17.29v51.02h-11.38v-50.03c0-4.68-1.45-8.31-4.36-10.89-2.91-2.58-6.94-3.87-12.09-3.87-5.81,0-10.59,1.88-14.34,5.62-3.75,3.75-5.62,8.57-5.62,14.48v44.69h-11.38V43.55h11.38Z"/>
        <path class="cls-1" d="M504.72,118.18c-10.78,0-19.32-3.63-25.65-10.89-6.32-7.26-9.49-16.37-9.49-27.34s3.21-19.84,9.63-27.2c6.42-7.35,14.69-11.03,24.81-11.03,10.68,0,18.92,3.72,24.74,11.17,5.81,7.45,8.71,17.36,8.71,29.72h-56.22c.47,7.68,2.74,13.94,6.82,18.76,4.08,4.83,9.63,7.24,16.65,7.24,10.87,0,17.57-4.97,20.1-14.9h11.1c-1.69,7.78-5.25,13.8-10.68,18.06-5.44,4.26-12.28,6.4-20.52,6.4ZM519.2,56.9c-3.65-4.12-8.71-6.18-15.18-6.18s-11.6,2.16-15.39,6.47c-3.79,4.31-6.16,9.93-7.1,16.87h43.71c-.38-7.31-2.39-13.02-6.04-17.15Z"/>
        <path class="cls-1" d="M631.42,103.56c-8.95,9.84-20.87,14.76-35.77,14.76s-26.82-4.92-35.77-14.76c-8.95-9.84-13.42-22.39-13.42-37.67s4.47-27.83,13.42-37.67c8.95-9.84,20.87-14.76,35.77-14.76s26.82,4.92,35.77,14.76c8.95,9.84,13.42,22.39,13.42,37.67s-4.48,27.83-13.42,37.67ZM568.95,95.69c6.37,7.68,15.27,11.52,26.7,11.52s20.33-3.84,26.7-11.52c6.37-7.68,9.56-17.61,9.56-29.79s-3.19-22.14-9.56-29.87c-6.37-7.73-15.27-11.6-26.7-11.6s-20.33,3.87-26.7,11.6c-6.37,7.73-9.56,17.69-9.56,29.87s3.18,22.11,9.56,29.79Z"/>
        <path class="cls-1" d="M689.25,118.18c-10.59,0-19.09-3.65-25.51-10.96-6.42-7.31-9.63-16.39-9.63-27.26s3.21-19.96,9.63-27.27c6.42-7.31,14.92-10.96,25.51-10.96,8.53,0,15.51,2.27,20.94,6.82,5.43,4.55,8.81,10.71,10.12,18.48h-11.52c-.84-4.97-2.95-8.85-6.32-11.67-3.37-2.81-7.78-4.22-13.21-4.22-7.5,0-13.28,2.72-17.36,8.15-4.08,5.44-6.11,12.32-6.11,20.66s2.04,15.2,6.11,20.59c4.08,5.39,9.86,8.08,17.36,8.08,5.81,0,10.45-1.57,13.91-4.71,3.47-3.14,5.43-7.57,5.9-13.28h11.24c-.75,8.71-3.84,15.48-9.28,20.31-5.44,4.83-12.7,7.24-21.78,7.24Z"/>
        <path class="cls-1" d="M788.76,116.21h-11.38v-9.98h-.28c-5.72,7.78-13.02,11.67-21.92,11.67-7.5,0-13.45-2.13-17.85-6.39-4.41-4.26-6.61-10.14-6.61-17.64v-50.31h11.38v50.03c0,4.69,1.43,8.34,4.29,10.96,2.86,2.62,6.86,3.94,12.02,3.94,5.71,0,10.31-1.92,13.77-5.76,3.47-3.84,5.2-8.67,5.2-14.48v-44.69h11.38v72.66Z"/>
        <path class="cls-1" d="M804.64,116.21V15.72h11.38v100.49h-11.38Z"/>
        <path class="cls-1" d="M888.96,116.92c-7.22,0-11.38-3.61-12.51-10.82h-.14c-6,7.68-14.05,11.52-24.17,11.52-7.22,0-13.12-1.73-17.71-5.2-4.59-3.47-6.89-8.48-6.89-15.04,0-3.37.54-6.3,1.62-8.78,1.08-2.48,2.46-4.5,4.15-6.04,1.69-1.55,4.01-2.9,6.96-4.08,2.95-1.17,5.78-2.06,8.5-2.67,2.72-.61,6.18-1.24,10.4-1.9,2.72-.37,4.66-.68,5.83-.91,1.17-.23,2.69-.61,4.57-1.12,1.87-.51,3.18-1.1,3.94-1.76.75-.65,1.45-1.55,2.11-2.67.65-1.12.98-2.44.98-3.94,0-4.12-1.43-7.28-4.29-9.49-2.86-2.2-6.86-3.3-12.02-3.3-11.71,0-17.76,5.34-18.13,16.02h-10.96c.19-7.4,2.74-13.35,7.66-17.85,4.92-4.5,12.02-6.75,21.29-6.75,17.9,0,26.84,7.68,26.84,23.05v34.57c0,3.19.54,5.44,1.62,6.75,1.08,1.31,3.11,1.64,6.11.98h.42v8.29c-1.88.75-3.94,1.12-6.18,1.12ZM854.67,108.91c7.03,0,12.46-2.04,16.3-6.11,3.84-4.08,5.76-8.55,5.76-13.42v-12.37c-3.47,2.16-8.99,3.94-16.58,5.34-2.81.56-5.01,1.01-6.61,1.34-1.59.33-3.42.89-5.48,1.69-2.06.8-3.61,1.66-4.64,2.6-1.03.94-1.92,2.18-2.67,3.72-.75,1.55-1.12,3.35-1.12,5.41,0,7.87,5.01,11.81,15.04,11.81Z"/>
        <path class="cls-1" d="M914.96,43.55v12.09h.28c2.34-3.84,5.39-6.96,9.14-9.35,3.75-2.39,7.92-3.58,12.51-3.58,1.69,0,3.23.28,4.64.84v10.96h-.42c-1.41-.47-3.09-.7-5.06-.7-5.81,0-10.78,2.04-14.9,6.11-4.12,4.08-6.18,9.39-6.18,15.95v40.34h-11.38V43.55h11.38Z"/>
      </g>
    </g>
  </g>
</svg>