<?xml version="1.0" encoding="UTF-8"?>
<svg id="Layer_2" data-name="Layer 2" xmlns="http://www.w3.org/2000/svg" viewBox="0 0 689.95 110.64">
  <defs>
    <style>
      .cls-1 {
        fill: #000;
        stroke-width: 0px;
      }
    </style>
  </defs>
  <g id="Layer_1-2" data-name="Layer 1">
    <g>
      <path class="cls-1" d="M89.66,95.07c-9.44,10.38-22.02,15.57-37.75,15.57s-28.3-5.19-37.75-15.57C4.72,84.69,0,71.44,0,55.32S4.72,25.95,14.16,15.57C23.6,5.19,36.19,0,51.91,0s28.3,5.19,37.75,15.57c9.44,10.38,14.16,23.63,14.16,39.75s-4.72,29.37-14.16,39.75ZM23.73,86.76c6.72,8.11,16.12,12.16,28.18,12.16s21.45-4.05,28.18-12.16c6.72-8.11,10.09-18.59,10.09-31.44s-3.36-23.36-10.09-31.52c-6.72-8.16-16.12-12.24-28.18-12.24s-21.46,4.08-28.18,12.24c-6.72,8.16-10.09,18.66-10.09,31.52s3.36,23.34,10.09,31.44Z"/>
      <path class="cls-1" d="M129.92,31.74v10.09h.3c5.93-7.91,14.04-11.86,24.32-11.86,8.11,0,14.44,2.13,18.98,6.38,4.55,4.25,6.82,10.33,6.82,18.24v53.84h-12.01v-52.8c0-4.94-1.53-8.77-4.6-11.49-3.07-2.72-7.32-4.08-12.75-4.08-6.13,0-11.17,1.98-15.13,5.93-3.96,3.96-5.93,9.05-5.93,15.28v47.16h-12.01V31.74h12.01Z"/>
      <path class="cls-1" d="M228.99,110.49c-11.37,0-20.39-3.83-27.07-11.49-6.67-7.66-10.01-17.28-10.01-28.85s3.39-20.94,10.16-28.7c6.77-7.76,15.5-11.64,26.18-11.64,11.27,0,19.97,3.93,26.1,11.79,6.13,7.86,9.2,18.32,9.2,31.37h-59.33c.49,8.11,2.89,14.71,7.19,19.8,4.3,5.09,10.16,7.64,17.57,7.64,11.47,0,18.54-5.24,21.21-15.72h11.72c-1.78,8.21-5.54,14.56-11.27,19.06-5.74,4.5-12.95,6.75-21.65,6.75ZM244.27,45.83c-3.86-4.35-9.2-6.53-16.02-6.53s-12.24,2.28-16.24,6.82c-4,4.55-6.5,10.48-7.49,17.8h46.13c-.4-7.71-2.52-13.74-6.38-18.09Z"/>
      <path class="cls-1" d="M362.7,95.07c-9.44,10.38-22.02,15.57-37.75,15.57s-28.3-5.19-37.75-15.57c-9.44-10.38-14.16-23.63-14.16-39.75s4.72-29.37,14.16-39.75c9.44-10.38,22.03-15.57,37.75-15.57s28.3,5.19,37.75,15.57c9.44,10.38,14.16,23.63,14.16,39.75s-4.72,29.37-14.16,39.75ZM296.77,86.76c6.72,8.11,16.12,12.16,28.18,12.16s21.45-4.05,28.18-12.16c6.72-8.11,10.09-18.59,10.09-31.44s-3.36-23.36-10.09-31.52c-6.72-8.16-16.12-12.24-28.18-12.24s-21.46,4.08-28.18,12.24c-6.72,8.16-10.09,18.66-10.09,31.52s3.36,23.34,10.09,31.44Z"/>
      <path class="cls-1" d="M423.73,110.49c-11.17,0-20.15-3.86-26.92-11.57-6.77-7.71-10.16-17.3-10.16-28.77s3.39-21.06,10.16-28.77c6.77-7.71,15.74-11.57,26.92-11.57,9,0,16.36,2.4,22.1,7.19,5.73,4.8,9.29,11.3,10.68,19.5h-12.16c-.89-5.24-3.11-9.34-6.67-12.31-3.56-2.97-8.21-4.45-13.94-4.45-7.91,0-14.02,2.87-18.32,8.6-4.3,5.74-6.45,13-6.45,21.8s2.15,16.04,6.45,21.73c4.3,5.69,10.4,8.53,18.32,8.53,6.13,0,11.02-1.65,14.68-4.97,3.66-3.31,5.73-7.98,6.23-14.02h11.86c-.79,9.2-4.06,16.34-9.79,21.43-5.74,5.09-13.4,7.64-22.99,7.64Z"/>
      <path class="cls-1" d="M528.73,108.42h-12.01v-10.53h-.3c-6.03,8.21-13.74,12.31-23.14,12.31-7.91,0-14.19-2.25-18.84-6.75-4.65-4.5-6.97-10.7-6.97-18.61V31.74h12.01v52.8c0,4.95,1.51,8.8,4.52,11.57,3.01,2.77,7.24,4.15,12.68,4.15,6.03,0,10.88-2.03,14.54-6.08,3.66-4.05,5.49-9.14,5.49-15.28V31.74h12.01v76.68Z"/>
      <path class="cls-1" d="M545.49,108.42V2.37h12.01v106.04h-12.01Z"/>
      <path class="cls-1" d="M634.48,109.16c-7.62,0-12.01-3.8-13.2-11.42h-.15c-6.33,8.11-14.83,12.16-25.51,12.16-7.62,0-13.84-1.83-18.69-5.49-4.85-3.66-7.27-8.95-7.27-15.87,0-3.56.57-6.65,1.71-9.27,1.14-2.62,2.6-4.75,4.38-6.38,1.78-1.63,4.23-3.06,7.34-4.3,3.11-1.23,6.1-2.17,8.97-2.82,2.87-.64,6.53-1.31,10.97-2,2.87-.39,4.92-.72,6.16-.96,1.24-.25,2.84-.64,4.82-1.19,1.98-.54,3.36-1.16,4.15-1.85.79-.69,1.53-1.63,2.23-2.82.69-1.19,1.04-2.57,1.04-4.15,0-4.35-1.51-7.69-4.52-10.01-3.02-2.32-7.24-3.49-12.68-3.49-12.36,0-18.74,5.64-19.13,16.91h-11.57c.2-7.81,2.89-14.09,8.08-18.84,5.19-4.75,12.68-7.12,22.47-7.12,18.88,0,28.33,8.11,28.33,24.32v36.49c0,3.36.57,5.74,1.71,7.12,1.14,1.39,3.29,1.73,6.45,1.04h.44v8.75c-1.98.79-4.15,1.19-6.53,1.19ZM598.29,100.7c7.42,0,13.15-2.15,17.2-6.45,4.05-4.3,6.08-9.02,6.08-14.16v-13.05c-3.66,2.28-9.49,4.15-17.5,5.64-2.97.59-5.29,1.06-6.97,1.41-1.68.35-3.61.94-5.78,1.78-2.18.84-3.81,1.76-4.89,2.74-1.09.99-2.03,2.3-2.82,3.93-.79,1.63-1.19,3.54-1.19,5.71,0,8.31,5.29,12.46,15.87,12.46Z"/>
      <path class="cls-1" d="M661.91,31.74v12.75h.3c2.47-4.05,5.68-7.34,9.64-9.86,3.95-2.52,8.35-3.78,13.2-3.78,1.78,0,3.41.3,4.89.89v11.57h-.44c-1.48-.49-3.26-.74-5.34-.74-6.13,0-11.37,2.15-15.72,6.45-4.35,4.3-6.53,9.91-6.53,16.83v42.57h-12.01V31.74h12.01Z"/>
    </g>
  </g>
</svg>